<?xml version="1.0" encoding="UTF-8" standalone="no"?>
<!-- Created with Inkscape (http://www.inkscape.org/) -->

<svg
   width="69.531708mm"
   height="132.2917mm"
   viewBox="0 0 69.531708 132.2917"
   version="1.1"
   id="svg1"
   xml:space="preserve"
   inkscape:version="1.4.4 (dcaf3e7d9e, 2026-05-05)"
   sodipodi:docname="drawing.svg"
   xmlns:inkscape="http://www.inkscape.org/namespaces/inkscape"
   xmlns:sodipodi="http://sodipodi.sourceforge.net/DTD/sodipodi-0.dtd"
   xmlns="http://www.w3.org/2000/svg"
   xmlns:svg="http://www.w3.org/2000/svg"><sodipodi:namedview
     id="namedview1"
     pagecolor="#505050"
     bordercolor="#eeeeee"
     borderopacity="1"
     inkscape:showpageshadow="0"
     inkscape:pageopacity="0"
     inkscape:pagecheckerboard="0"
     inkscape:deskcolor="#505050"
     inkscape:document-units="mm"
     inkscape:zoom="0.5"
     inkscape:cx="-8617"
     inkscape:cy="-4334"
     inkscape:window-width="1920"
     inkscape:window-height="1010"
     inkscape:window-x="0"
     inkscape:window-y="0"
     inkscape:window-maximized="1"
     inkscape:current-layer="layer1"><inkscape:page
       x="0"
       y="0"
       width="69.531708"
       height="132.2917"
       id="page2"
       margin="0"
       bleed="0" /></sodipodi:namedview><defs
     id="defs1" /><g
     inkscape:label="Layer 1"
     inkscape:groupmode="layer"
     id="layer1"
     transform="translate(287.71608,247.59986)"><path
       style="fill:#000000;stroke-width:0.947624"
       d="m -269.27608,-121.03751 c -2.7334,-3.1883 -3.7506,-6.174 -4.4897,-13.177 -0.2952,-2.7986 -2.0735,-19.0857 -3.9515,-36.1934 -1.878,-17.1079 -3.4369,-31.9194 -3.4643,-32.9148 -0.3362,-12.2311 10.2833,-21.9829 26.4131,-24.2548 8.902,-1.254 17.2662,0.2114 23.0329,4.0353 5.494,3.643 7.8957,9.6979 6.5572,16.5313 -1.31,6.687 -3.9958,10.6304 -12.2259,17.9502 -4.6235,4.1119 -6.0097,5.7333 -7.0195,8.2106 -1.2762,3.1305 -1.9196,7.1269 -1.6225,10.0781 0.3063,3.0408 1.0547,5.1521 2.992,8.4396 7.6673,13.011 9.7095,24.831 5.8961,34.1275 -0.685,1.6701 -1.2126,2.529 -2.9021,4.7234 -1.7879,2.3222 -2.3201,2.8666 -3.9677,4.0576 -4.8838,3.5302 -10.3036,4.8169 -15.8117,3.7538 -3.9668,-0.7657 -6.9421,-2.4581 -9.4364,-5.3674 z m -17.0948,-98.6519 c -2.1821,-3.3565 -1.6415,-9.1517 1.129,-12.1037 3.8646,-4.1175 9.295,-1.5576 9.8522,4.6444 0.3647,4.0601 -1.2118,7.6535 -4.0988,9.342 -2.3212,1.3578 -5.3066,0.541 -6.8824,-1.8827 z m 13.3019,-7.7216 c -2.6127,-2.6525 -3.0212,-8.0889 -0.8567,-11.4018 1.1191,-1.7129 2.0873,-2.4045 3.6349,-2.5962 3.1879,-0.3951 5.7943,2.0703 6.5083,6.1564 1.0669,6.1041 -3.2651,11.2922 -7.5781,9.0759 -0.5486,-0.2819 -1.3174,-0.8374 -1.7084,-1.2343 z m 12.0256,-4.2034 c -0.9928,-1.41 -1.3601,-2.3935 -1.6015,-4.2893 -0.7524,-5.9097 3.2895,-11.3366 7.7671,-10.4288 3.9909,0.809 6.0538,6.5892 4.1844,11.7242 -1.4567,4.0013 -4.6962,6.0414 -7.876,4.9601 -1.0635,-0.3617 -1.7001,-0.8676 -2.474,-1.9662 z m 13.9787,-1.1838 c -0.6987,-0.9692 -1.1928,-2.2268 -1.4536,-3.6999 -0.7996,-4.5172 1.385,-9.4328 4.7694,-10.7318 4.2789,-1.6422 8.1459,2.3836 7.7897,8.1097 -0.3448,5.5453 -4.101,9.478 -8.0652,8.4442 -1.023,-0.2668 -2.3913,-1.2219 -3.0403,-2.1222 z m 14.9604,4.7744 c -0.9431,-1.3129 -1.7453,-3.4714 -1.9739,-5.311 -0.9212,-7.4113 3.7804,-14.2503 9.3379,-13.5831 1.1852,0.1423 1.5983,0.3295 2.8798,1.3055 1.2606,0.96 1.6259,1.3918 2.322,2.7445 2.222,4.3184 1.6634,10.234 -1.3379,14.1689 -1.4437,1.8929 -2.303,2.5603 -4.0673,3.1591 -1.9125,0.6492 -3.9224,0.2874 -5.5673,-1.0022 -0.666,-0.5222 -1.383,-1.1889 -1.5933,-1.4817 z"
       id="path1" /></g></svg>
