<?xml version="1.0" encoding="UTF-8" standalone="no"?>
<!-- Created with Inkscape (http://www.inkscape.org/) -->

<svg
   width="68.527588mm"
   height="34.3792mm"
   viewBox="0 0 68.527588 34.3792"
   version="1.1"
   id="svg1"
   xml:space="preserve"
   inkscape:version="1.4.4 (dcaf3e7d9e, 2026-05-05)"
   sodipodi:docname="drawing.svg"
   xmlns:inkscape="http://www.inkscape.org/namespaces/inkscape"
   xmlns:sodipodi="http://sodipodi.sourceforge.net/DTD/sodipodi-0.dtd"
   xmlns="http://www.w3.org/2000/svg"
   xmlns:svg="http://www.w3.org/2000/svg"><sodipodi:namedview
     id="namedview1"
     pagecolor="#505050"
     bordercolor="#eeeeee"
     borderopacity="1"
     inkscape:showpageshadow="0"
     inkscape:pageopacity="0"
     inkscape:pagecheckerboard="0"
     inkscape:deskcolor="#505050"
     inkscape:document-units="mm"
     inkscape:zoom="0.25"
     inkscape:cx="-58"
     inkscape:cy="1128"
     inkscape:window-width="1920"
     inkscape:window-height="1010"
     inkscape:window-x="0"
     inkscape:window-y="0"
     inkscape:window-maximized="1"
     inkscape:current-layer="layer1"><inkscape:page
       x="-4.3243653e-21"
       y="0"
       width="68.527596"
       height="34.3792"
       id="page2"
       margin="0"
       bleed="0" /></sodipodi:namedview><defs
     id="defs1" /><g
     inkscape:label="Layer 1"
     inkscape:groupmode="layer"
     id="layer1"
     transform="translate(416.87989,-186.47306)"><path
       id="path1581"
       style="font-variation-settings:'wght' 900;opacity:1;fill:#000000;fill-opacity:1;stroke:none;stroke-width:1.50206;stroke-linecap:butt;stroke-linejoin:miter;stroke-dasharray:none;stroke-opacity:1"
       d="m -415.59629,186.47305 2.10272,9.7131 0.87746,0.89607 v -10.60917 z m 4.48035,0 v 12.38943 l 1.40302,8.52558 12.68398,5.68957 -2.69235,-6.92257 -7.65638,-19.68201 z m 5.348,0 7.12928,18.32757 2.22157,0.66869 v -18.99626 z m 10.85101,0 v 19.86959 l 3.45767,9.23355 8.1008,3.63337 v -32.73651 z m 13.04313,0 v 32.73651 l 8.1008,-3.63337 3.45767,-9.23355 v -19.86959 z m 13.05864,0 v 18.99626 l 2.22157,-0.66869 7.12928,-18.32757 z m 10.96057,0 -6.91586,17.77928 -3.43235,8.8253 12.68347,-5.68957 1.40301,-8.53695 v -12.37806 z m 5.23844,0 v 10.6071 l 0.87592,-0.894 v -5.1e-4 l 2.10323,-9.71259 z m -64.26378,1.15859 v 16.54266 l 0.28732,0.12867 3.67988,1.65055 z m 68.5276,0 -3.9672,18.32084 3.67781,-1.64951 0.28939,-0.1297 z m -68.5276,18.187 v 9.10229 l 1.28364,5.9309 h 2.98018 v -13.12116 z m 68.5276,0 -4.26382,1.91203 v 13.12116 h 2.97915 l 1.28467,-5.93297 z m -61.05725,3.35019 0.24649,1.42523 -0.39429,0.51728 3.78892,9.74049 h 9.35137 v -5.85649 z m 53.58484,10e-4 -12.99042,5.82548 v 5.85649 h 9.35137 l 3.7884,-9.73894 -0.39585,-0.51883 z m -54.79872,3.33933 -0.49248,0.64595 v 7.69669 h 3.73776 z m 56.01363,0.002 -3.24476,8.34109 h 3.73827 v -7.6941 z m -40.3071,3.15743 v 5.18366 h 11.55847 z m 24.6016,0 -11.55847,5.18366 h 11.55847 z" /></g></svg>
