<?xml version="1.0" encoding="UTF-8" standalone="no"?>
<svg
   height="24px"
   viewBox="0 -960 960 960"
   width="24px"
   fill="#e3e3e3"
   version="1.1"
   id="svg1"
   sodipodi:docname="altitude_low_24dp_E3E3E3_FILL0_wght400_GRAD0_opsz24.svg"
   inkscape:version="1.4.4 (dcaf3e7d9e, 2026-05-05)"
   xmlns:inkscape="http://www.inkscape.org/namespaces/inkscape"
   xmlns:sodipodi="http://sodipodi.sourceforge.net/DTD/sodipodi-0.dtd"
   xmlns="http://www.w3.org/2000/svg"
   xmlns:svg="http://www.w3.org/2000/svg">
  <defs
     id="defs1" />
  <sodipodi:namedview
     id="namedview1"
     pagecolor="#505050"
     bordercolor="#eeeeee"
     borderopacity="1"
     inkscape:showpageshadow="0"
     inkscape:pageopacity="0"
     inkscape:pagecheckerboard="0"
     inkscape:deskcolor="#505050"
     inkscape:zoom="11.608336"
     inkscape:cx="27.092599"
     inkscape:cy="30.667616"
     inkscape:window-width="1920"
     inkscape:window-height="1010"
     inkscape:window-x="0"
     inkscape:window-y="0"
     inkscape:window-maximized="1"
     inkscape:current-layer="svg1" />
  <path
     d="m 147.34615,-80 c -16.66667,0 -28.66667,-7.333333 -36,-22 -7.33333,-14.66667 -6,-28.66667 4,-42 l 160,-213 c 4,-5.33333 8.83333,-9.33333 14.5,-12 5.66667,-2.66667 11.5,-4 17.5,-4 6,0 11.83333,1.33333 17.5,4 5.66667,2.66667 10.5,6.66667 14.5,12 l 148,197 h 300 l -200,-266 -68,90 c -8,10.66667 -17.33333,16.16667 -28,16.5 -10.66667,0.33333 -20,-2.5 -28,-8.5 -8,-6 -13.33333,-14.16667 -16,-24.5 -2.66667,-10.33333 0,-20.83333 8,-31.5 l 100,-133 c 4,-5.33333 8.83333,-9.33333 14.5,-12 5.66667,-2.66667 11.5,-4 17.5,-4 6,0 11.83333,1.33333 17.5,4 5.66667,2.66667 10.5,6.66667 14.5,12 l 280,373 c 10,13.33333 11.33333,27.33333 4,42 -7.33333,14.666667 -19.33333,22 -36,22 z"
     id="path2"
     sodipodi:nodetypes="ssccssscccccsssccsssccsss" />
  <path
     d="m 252.84615,-773.5 c 7.6667,7.66667 11.5,17.16667 11.5,28.5 v 128 l 37,-36 c 7.33333,-7.33333 16.33333,-11.16667 27,-11.5 10.66667,-0.33333 20,3.5 28,11.5 7.33333,7.33333 11,16.66667 11,28 0,11.33333 -3.66667,20.66667 -11,28 l -104,104 c -8,8 -17.3333,12 -28,12 -10.6667,0 -20,-4 -28,-12 l -104,-104 c -8,-8 -12,-17.33333 -12,-28 0,-10.66667 4,-20 12,-28 8,-8 17.5,-12 28.5,-12 11,0 20.5,4 28.5,12 l 35,35 v -127 c 0,-11.33333 3.8333,-20.83333 11.5,-28.5 7.6667,-7.66667 17.1667,-11.5 28.5,-11.5 11.3333,0 20.8333,3.83333 28.5,11.5 z"
     id="path1-3" />
</svg>
